<svg xmlns="http://www.w3.org/2000/svg" xmlns:xlink="http://www.w3.org/1999/xlink" width="500" zoomAndPan="magnify" viewBox="0 0 375 374.999991" height="500" preserveAspectRatio="xMidYMid meet" version="1.0"><defs><g/><clipPath id="e6539daf87"><rect x="0" width="160" y="0" height="37"/></clipPath><clipPath id="826319c79b"><rect x="0" width="173" y="0" height="178"/></clipPath><clipPath id="4941432db5"><path d="M 27 111.207031 L 158 111.207031 L 158 178 L 27 178 Z M 27 111.207031 " clip-rule="nonzero"/></clipPath></defs><g transform="matrix(1, 0, 0, 1, 168, 92)"><g clip-path="url(#e6539daf87)"><g fill="#2684ff" fill-opacity="1"><g transform="translate(1.093074, 28.716746)"><g><path d="M 20.375 -20.40625 L 20.375 0 L 18.609375 0 L 5.484375 -16.5625 L 5.484375 0 L 3.328125 0 L 3.328125 -20.40625 L 5.109375 -20.40625 L 18.25 -3.84375 L 18.25 -20.40625 Z M 20.375 -20.40625 "/></g></g></g><g fill="#2684ff" fill-opacity="1"><g transform="translate(24.787476, 28.716746)"><g><path d="M 17.75 -1.859375 L 17.75 0 L 3.328125 0 L 3.328125 -20.40625 L 17.3125 -20.40625 L 17.3125 -18.546875 L 5.484375 -18.546875 L 5.484375 -11.28125 L 16.03125 -11.28125 L 16.03125 -9.453125 L 5.484375 -9.453125 L 5.484375 -1.859375 Z M 17.75 -1.859375 "/></g></g></g><g fill="#2684ff" fill-opacity="1"><g transform="translate(44.022727, 28.716746)"><g><path d="M 16.125 0 L 9.53125 -8.984375 L 2.96875 0 L 0.5 0 L 8.25 -10.5 L 0.984375 -20.40625 L 3.46875 -20.40625 L 9.625 -12.078125 L 15.75 -20.40625 L 18.078125 -20.40625 L 10.84375 -10.546875 L 18.625 0 Z M 16.125 0 "/></g></g></g><g fill="#2684ff" fill-opacity="1"><g transform="translate(62.733347, 28.716746)"><g><path d="M 8.953125 0.171875 C 7.429688 0.171875 5.972656 -0.0664062 4.578125 -0.546875 C 3.191406 -1.035156 2.125 -1.679688 1.375 -2.484375 L 2.21875 -4.140625 C 2.957031 -3.398438 3.9375 -2.800781 5.15625 -2.34375 C 6.382812 -1.882812 7.648438 -1.65625 8.953125 -1.65625 C 10.773438 -1.65625 12.144531 -1.988281 13.0625 -2.65625 C 13.976562 -3.332031 14.4375 -4.207031 14.4375 -5.28125 C 14.4375 -6.09375 14.1875 -6.738281 13.6875 -7.21875 C 13.195312 -7.707031 12.585938 -8.082031 11.859375 -8.34375 C 11.140625 -8.613281 10.140625 -8.90625 8.859375 -9.21875 C 7.328125 -9.601562 6.101562 -9.972656 5.1875 -10.328125 C 4.269531 -10.691406 3.484375 -11.242188 2.828125 -11.984375 C 2.179688 -12.722656 1.859375 -13.722656 1.859375 -14.984375 C 1.859375 -16.015625 2.128906 -16.953125 2.671875 -17.796875 C 3.222656 -18.640625 4.0625 -19.3125 5.1875 -19.8125 C 6.3125 -20.320312 7.710938 -20.578125 9.390625 -20.578125 C 10.554688 -20.578125 11.695312 -20.414062 12.8125 -20.09375 C 13.925781 -19.78125 14.894531 -19.34375 15.71875 -18.78125 L 14.984375 -17.0625 C 14.128906 -17.625 13.210938 -18.046875 12.234375 -18.328125 C 11.265625 -18.609375 10.316406 -18.75 9.390625 -18.75 C 7.597656 -18.75 6.25 -18.398438 5.34375 -17.703125 C 4.445312 -17.015625 4 -16.128906 4 -15.046875 C 4 -14.222656 4.242188 -13.5625 4.734375 -13.0625 C 5.234375 -12.570312 5.851562 -12.195312 6.59375 -11.9375 C 7.34375 -11.675781 8.351562 -11.390625 9.625 -11.078125 C 11.113281 -10.710938 12.320312 -10.347656 13.25 -9.984375 C 14.175781 -9.628906 14.957031 -9.085938 15.59375 -8.359375 C 16.238281 -7.628906 16.5625 -6.640625 16.5625 -5.390625 C 16.5625 -4.359375 16.285156 -3.421875 15.734375 -2.578125 C 15.179688 -1.734375 14.328125 -1.0625 13.171875 -0.5625 C 12.023438 -0.0703125 10.617188 0.171875 8.953125 0.171875 Z M 8.953125 0.171875 "/></g></g></g><g fill="#2684ff" fill-opacity="1"><g transform="translate(80.36566, 28.716746)"><g><path d="M 7.28125 -18.546875 L 0.109375 -18.546875 L 0.109375 -20.40625 L 16.625 -20.40625 L 16.625 -18.546875 L 9.453125 -18.546875 L 9.453125 0 L 7.28125 0 Z M 7.28125 -18.546875 "/></g></g></g><g fill="#2684ff" fill-opacity="1"><g transform="translate(96.074274, 28.716746)"><g><path d="M 16.125 -5.453125 L 4.75 -5.453125 L 2.296875 0 L 0.0625 0 L 9.390625 -20.40625 L 11.515625 -20.40625 L 20.84375 0 L 18.578125 0 Z M 15.34375 -7.203125 L 10.4375 -18.171875 L 5.546875 -7.203125 Z M 15.34375 -7.203125 "/></g></g></g><g fill="#2684ff" fill-opacity="1"><g transform="translate(116.679307, 28.716746)"><g><path d="M 17.703125 -10.203125 L 19.765625 -10.203125 L 19.765625 -2.421875 C 18.816406 -1.585938 17.691406 -0.945312 16.390625 -0.5 C 15.085938 -0.0507812 13.71875 0.171875 12.28125 0.171875 C 10.238281 0.171875 8.398438 -0.269531 6.765625 -1.15625 C 5.128906 -2.050781 3.84375 -3.289062 2.90625 -4.875 C 1.976562 -6.46875 1.515625 -8.242188 1.515625 -10.203125 C 1.515625 -12.171875 1.976562 -13.945312 2.90625 -15.53125 C 3.84375 -17.113281 5.128906 -18.347656 6.765625 -19.234375 C 8.398438 -20.128906 10.242188 -20.578125 12.296875 -20.578125 C 13.859375 -20.578125 15.289062 -20.328125 16.59375 -19.828125 C 17.894531 -19.335938 18.992188 -18.609375 19.890625 -17.640625 L 18.546875 -16.265625 C 16.929688 -17.859375 14.878906 -18.65625 12.390625 -18.65625 C 10.734375 -18.65625 9.238281 -18.289062 7.90625 -17.5625 C 6.582031 -16.832031 5.539062 -15.820312 4.78125 -14.53125 C 4.019531 -13.238281 3.640625 -11.796875 3.640625 -10.203125 C 3.640625 -8.609375 4.019531 -7.171875 4.78125 -5.890625 C 5.539062 -4.609375 6.582031 -3.597656 7.90625 -2.859375 C 9.226562 -2.117188 10.710938 -1.75 12.359375 -1.75 C 14.460938 -1.75 16.242188 -2.273438 17.703125 -3.328125 Z M 17.703125 -10.203125 "/></g></g></g><g fill="#2684ff" fill-opacity="1"><g transform="translate(139.207925, 28.716746)"><g><path d="M 17.75 -1.859375 L 17.75 0 L 3.328125 0 L 3.328125 -20.40625 L 17.3125 -20.40625 L 17.3125 -18.546875 L 5.484375 -18.546875 L 5.484375 -11.28125 L 16.03125 -11.28125 L 16.03125 -9.453125 L 5.484375 -9.453125 L 5.484375 -1.859375 Z M 17.75 -1.859375 "/></g></g></g></g></g><g transform="matrix(1, 0, 0, 1, 162, 107)"><g clip-path="url(#826319c79b)"><g fill="#ffffff" fill-opacity="1"><g transform="translate(0.590636, 77.195818)"><g><path d="M 5.171875 0 L 5.171875 -60.34375 L 87.96875 -60.34375 L 87.96875 -49.203125 L 16.3125 -49.203125 L 16.3125 -38.9375 L 70.4375 -38.9375 L 70.4375 -27.796875 L 16.3125 -27.796875 L 16.3125 -11.140625 L 87.96875 -11.140625 L 87.96875 0 Z M 5.171875 0 "/></g></g></g><g fill="#ffffff" fill-opacity="1"><g transform="translate(90.113952, 77.195818)"><g><path d="M 29 -60.515625 L 40.234375 -60.515625 L 32.625 0 L 12.953125 0 L 5.171875 -60.515625 L 16.40625 -60.515625 L 22.796875 -10.96875 Z M 29 -60.515625 "/></g></g></g><g fill="#ffffff" fill-opacity="1"><g transform="translate(133.451169, 77.195818)"><g><path d="M 33.75 -49.296875 L 16.3125 -49.296875 L 16.3125 -38.59375 L 28.578125 -38.59375 L 28.578125 -27.453125 L 16.3125 -27.453125 L 16.3125 -11.140625 L 33.75 -11.140625 L 33.75 0 L 5.171875 0 L 5.171875 -60.515625 L 33.75 -60.515625 Z M 33.75 -49.296875 "/></g></g></g><g fill="#ffffff" fill-opacity="1"><g transform="translate(6.383142, 144.52396)"><g><path d="M 27.96875 -60.515625 L 39.109375 -60.515625 L 39.109375 0 L 27.96875 0 L 16.40625 -30.8125 L 16.40625 0 L 5.265625 0 L 5.265625 -60.34375 L 5.171875 -60.515625 L 17.09375 -60.515625 L 27.96875 -31.515625 Z M 27.96875 -60.515625 "/></g></g></g><g fill="#ffffff" fill-opacity="1"><g transform="translate(50.670008, 144.52396)"><g><path d="M 31.25 -60.515625 L 31.25 -49.375 L 23.734375 -49.375 L 23.734375 0 L 12.6875 0 L 12.6875 -49.375 L 5.171875 -49.375 L 5.171875 -60.515625 Z M 31.25 -60.515625 "/></g></g></g><g fill="#ffffff" fill-opacity="1"><g transform="translate(83.734057, 144.52396)"><g><path d="M 20.109375 -60.515625 C 23.566406 -60.515625 26.660156 -59.191406 29.390625 -56.546875 C 32.128906 -53.898438 34.289062 -50.285156 35.875 -45.703125 C 37.457031 -41.128906 38.25 -35.96875 38.25 -30.21875 C 38.25 -24.457031 37.457031 -19.300781 35.875 -14.75 C 34.289062 -10.207031 32.128906 -6.613281 29.390625 -3.96875 C 26.660156 -1.320312 23.566406 0 20.109375 0 C 16.660156 0 13.566406 -1.320312 10.828125 -3.96875 C 8.097656 -6.613281 5.941406 -10.207031 4.359375 -14.75 C 2.773438 -19.300781 1.984375 -24.457031 1.984375 -30.21875 C 1.984375 -35.96875 2.773438 -41.128906 4.359375 -45.703125 C 5.941406 -50.285156 8.097656 -53.898438 10.828125 -56.546875 C 13.566406 -59.191406 16.660156 -60.515625 20.109375 -60.515625 Z M 20.109375 -11.140625 C 20.804688 -11.140625 21.703125 -11.867188 22.796875 -13.328125 C 23.890625 -14.796875 24.878906 -16.953125 25.765625 -19.796875 C 26.660156 -22.648438 27.109375 -26.125 27.109375 -30.21875 C 27.109375 -34.363281 26.660156 -37.859375 25.765625 -40.703125 C 24.878906 -43.554688 23.890625 -45.710938 22.796875 -47.171875 C 21.703125 -48.640625 20.804688 -49.375 20.109375 -49.375 C 19.421875 -49.375 18.53125 -48.640625 17.4375 -47.171875 C 16.34375 -45.710938 15.347656 -43.554688 14.453125 -40.703125 C 13.566406 -37.859375 13.125 -34.363281 13.125 -30.21875 C 13.125 -26.125 13.566406 -22.648438 14.453125 -19.796875 C 15.347656 -16.953125 16.34375 -14.796875 17.4375 -13.328125 C 18.53125 -11.867188 19.421875 -11.140625 20.109375 -11.140625 Z M 20.109375 -11.140625 "/></g></g></g><g fill="#ffffff" fill-opacity="1"><g transform="translate(123.963453, 144.52396)"><g><path d="M 24.078125 -35.90625 C 26.035156 -34.582031 28.035156 -33.054688 30.078125 -31.328125 C 32.128906 -29.609375 33.84375 -27.367188 35.21875 -24.609375 C 36.769531 -21.554688 37.414062 -18.300781 37.15625 -14.84375 C 36.90625 -11.394531 35.828125 -8.40625 33.921875 -5.875 C 31.109375 -1.957031 27.222656 0 22.265625 0 C 21.347656 0 20.429688 -0.0859375 19.515625 -0.265625 C 18.191406 -0.492188 16.75 -0.9375 15.1875 -1.59375 C 13.632812 -2.257812 12.125 -3.328125 10.65625 -4.796875 C 9.1875 -6.265625 7.945312 -8.265625 6.9375 -10.796875 C 5.9375 -13.328125 5.378906 -16.546875 5.265625 -20.453125 L 16.40625 -20.453125 C 16.519531 -17.640625 16.890625 -15.597656 17.515625 -14.328125 C 18.148438 -13.066406 18.828125 -12.25 19.546875 -11.875 C 20.265625 -11.5 20.859375 -11.28125 21.328125 -11.21875 C 22.421875 -11.050781 23.238281 -11.125 23.78125 -11.4375 C 24.332031 -11.75 24.75 -12.082031 25.03125 -12.4375 C 25.601562 -13.238281 25.945312 -14.316406 26.0625 -15.671875 C 26.1875 -17.023438 25.929688 -18.363281 25.296875 -19.6875 C 24.546875 -21.175781 23.507812 -22.453125 22.1875 -23.515625 C 20.863281 -24.585938 19.394531 -25.671875 17.78125 -26.765625 C 17.03125 -27.273438 16.253906 -27.816406 15.453125 -28.390625 C 14.648438 -28.972656 13.84375 -29.582031 13.03125 -30.21875 C 9.46875 -33.15625 7.109375 -36.4375 5.953125 -40.0625 C 4.804688 -43.6875 4.953125 -47.335938 6.390625 -51.015625 C 7.484375 -53.722656 9.09375 -55.882812 11.21875 -57.5 C 13.0625 -58.820312 15.265625 -59.726562 17.828125 -60.21875 C 20.390625 -60.707031 22.960938 -60.660156 25.546875 -60.078125 C 28.140625 -59.503906 30.359375 -58.296875 32.203125 -56.453125 C 35.535156 -53.171875 37.289062 -48.597656 37.46875 -42.734375 L 26.328125 -42.734375 C 26.273438 -44.109375 26.003906 -45.472656 25.515625 -46.828125 C 25.023438 -48.179688 24.03125 -49.03125 22.53125 -49.375 C 21.4375 -49.664062 20.3125 -49.609375 19.15625 -49.203125 C 18.007812 -48.804688 17.207031 -48.03125 16.75 -46.875 C 16.570312 -46.53125 16.425781 -45.984375 16.3125 -45.234375 C 16.195312 -44.484375 16.382812 -43.5625 16.875 -42.46875 C 17.363281 -41.375 18.441406 -40.164062 20.109375 -38.84375 C 20.742188 -38.332031 21.390625 -37.84375 22.046875 -37.375 C 22.710938 -36.914062 23.390625 -36.425781 24.078125 -35.90625 Z M 24.078125 -35.90625 "/></g></g></g></g></g><path fill="#2684ff" d="M 24.074219 224.652344 L 52.199219 241.992188 C 54.242188 243.238281 56.902344 242.632812 58.148438 240.589844 C 58.148438 240.558594 58.175781 240.539062 58.175781 240.539062 C 75.996094 210.699219 79.554688 215.03125 132.769531 240.347656 C 134.921875 241.390625 137.496094 240.457031 138.53125 238.300781 C 138.558594 238.273438 138.558594 238.222656 138.582031 238.191406 L 151.96875 207.851562 C 152.925781 205.695312 151.9375 203.167969 149.8125 202.1875 C 143.917969 199.421875 132.230469 193.894531 121.691406 188.8125 C 55.863281 156.726562 33.847656 200.960938 22.613281 218.75 L 22.613281 218.746094 C 21.417969 220.765625 22.058594 223.398438 24.074219 224.652344 Z M 24.074219 224.652344 " fill-opacity="1" fill-rule="nonzero"/><g clip-path="url(#4941432db5)"><path fill="#2684ff" d="M 157.359375 135.738281 C 158.554688 133.71875 157.914062 131.085938 155.898438 129.832031 L 127.800781 112.515625 C 125.808594 111.1875 123.128906 111.6875 121.804688 113.679688 C 121.753906 113.761719 121.695312 113.839844 121.644531 113.949219 C 103.769531 143.894531 100.101562 139.375 47.128906 114.1875 C 44.976562 113.152344 42.40625 114.078125 41.367188 116.234375 C 41.339844 116.265625 41.339844 116.316406 41.316406 116.34375 L 27.90625 146.6875 C 26.945312 148.84375 27.933594 151.367188 30.058594 152.347656 C 35.953125 155.117188 47.667969 160.648438 58.210938 165.757812 C 124.070312 197.671875 146.054688 153.683594 157.371094 135.734375 Z M 157.359375 135.738281 " fill-opacity="1" fill-rule="nonzero"/></g></svg>